<svg width="67" height="17" viewBox="0 0 67 17" fill="none" xmlns="http://www.w3.org/2000/svg">
<g clip-path="url(#clip0_303_145)">
<path d="M55.2689 0.891602H11.6497C9.87282 0.891602 8.43237 2.33205 8.43237 4.10892V12.6784C8.43237 14.4553 9.87282 15.8958 11.6497 15.8958H55.2689C57.0458 15.8958 58.4862 14.4553 58.4862 12.6784V4.10892C58.4862 2.33205 57.0458 0.891602 55.2689 0.891602Z" stroke="#B85C38" stroke-width="1.78335" stroke-miterlimit="10"/>
<path d="M64.1621 10.7515C61.232 10.7515 58.8571 9.72049 58.8571 8.44728C58.8571 7.17407 61.232 6.14307 64.1621 6.14307C67.0922 6.14307 67.0922 10.7515 64.1621 10.7515Z" stroke="#B85C38" stroke-width="1.28178" stroke-miterlimit="10"/>
<path d="M2.84003 10.7515C5.77013 10.7515 8.14507 9.72049 8.14507 8.44728C8.14507 7.17407 5.77013 6.14307 2.84003 6.14307C-0.0900684 6.14307 -0.0900684 10.7515 2.84003 10.7515Z" stroke="#B85C38" stroke-width="1.28607" stroke-miterlimit="10"/>
</g>
<defs>
<clipPath id="clip0_303_145">
<rect width="67" height="16.7875" fill="white"/>
</clipPath>
</defs>
</svg>
